<?xml version="1.0" standalone="no"?>
<!DOCTYPE svg PUBLIC "-//W3C//DTD SVG 20010904//EN"
 "http://www.w3.org/TR/2001/REC-SVG-20010904/DTD/svg10.dtd">
<svg version="1.0" xmlns="http://www.w3.org/2000/svg"
 width="800.000000pt" height="800.000000pt" viewBox="0 0 800.000000 800.000000"
 preserveAspectRatio="xMidYMid meet">
<metadata>
Created by potrace 1.11, written by Peter Selinger 2001-2013
</metadata>
<g transform="translate(0.000000,800.000000) scale(0.100000,-0.100000)"
fill="#000000" stroke="none">
<path d="M4070 7736 c-25 -7 -115 -13 -200 -15 -148 -3 -265 -18 -430 -56 -36
-8 -77 -15 -92 -15 -16 0 -28 -4 -28 -9 0 -5 -8 -7 -18 -4 -10 2 -49 -3 -86
-11 -73 -17 -118 -20 -76 -5 18 6 7 7 -36 4 -34 -2 -92 -16 -130 -30 -38 -14
-100 -35 -139 -46 -38 -11 -74 -25 -80 -30 -5 -5 -17 -9 -26 -9 -9 0 -19 -7
-23 -15 -3 -8 -14 -15 -24 -15 -11 0 -25 -7 -32 -15 -7 -8 -21 -15 -32 -15
-26 0 -103 -41 -167 -89 -31 -24 -57 -37 -61 -31 -4 6 -20 0 -40 -15 -19 -14
-40 -25 -47 -25 -8 0 -16 -6 -19 -14 -3 -8 -33 -29 -67 -47 -34 -18 -75 -42
-92 -54 -28 -21 -65 -38 -65 -31 0 2 47 33 104 70 57 36 106 72 109 80 7 17
165 102 220 118 30 8 37 13 22 16 -16 4 -14 7 15 23 19 10 29 18 22 19 -21 0
-62 -31 -55 -43 4 -6 -2 -8 -16 -4 -22 5 -142 -54 -149 -74 -2 -5 -13 -9 -24
-9 -11 0 -31 -9 -45 -20 -14 -11 -32 -20 -40 -20 -7 0 -26 -8 -41 -19 -15 -10
-52 -34 -82 -52 -63 -39 -328 -242 -350 -269 -28 -33 -140 -121 -149 -116 -9
6 -63 -49 -80 -82 -7 -13 -23 -27 -37 -32 -14 -6 -23 -14 -20 -18 6 -9 -2 -22
-27 -41 -16 -12 -17 -12 -11 5 4 15 1 13 -16 -6 -69 -80 -96 -112 -151 -180
-34 -41 -64 -77 -68 -80 -3 -3 -28 -34 -56 -70 -27 -36 -57 -71 -67 -78 -10
-7 -18 -18 -18 -23 0 -5 -11 -20 -26 -32 -14 -12 -26 -30 -28 -40 -1 -9 -16
-32 -33 -50 -65 -67 -264 -393 -264 -432 0 -5 -8 -18 -16 -28 -13 -13 -18 -14
-24 -5 -5 8 -11 3 -18 -15 -15 -38 -14 -51 2 -41 7 5 6 2 -3 -6 -8 -8 -23 -28
-34 -44 -14 -23 -15 -30 -5 -37 7 -4 17 -5 23 -2 5 4 7 0 4 -8 -88 -214 -143
-337 -156 -347 -10 -8 -18 -29 -19 -52 0 -22 -15 -86 -31 -142 -39 -132 -48
-178 -33 -178 16 0 2 -49 -20 -71 -19 -19 -27 -55 -10 -45 17 11 0 -290 -20
-341 -11 -29 9 -102 23 -82 6 9 7 0 3 -28 -6 -37 15 -181 32 -223 11 -25 30
-101 25 -96 -2 3 -11 -1 -18 -9 -21 -21 -28 -94 -14 -160 10 -48 10 -61 -1
-69 -15 -12 -19 -131 -6 -154 5 -7 7 -47 6 -90 -2 -89 22 -304 46 -407 9 -38
17 -83 19 -99 2 -16 11 -35 20 -41 9 -7 16 -17 16 -24 0 -6 4 -11 9 -11 5 0
15 -17 22 -37 10 -32 13 -35 19 -18 7 20 7 20 13 0 4 -11 4 -2 0 20 -3 22 -7
51 -8 65 -3 35 -25 148 -32 166 -3 8 1 14 10 14 19 0 30 -27 14 -33 -8 -3 -3
-13 13 -28 30 -28 53 -69 70 -124 7 -22 18 -47 25 -55 14 -16 9 -70 -6 -70 -5
0 -9 5 -9 10 0 6 -5 10 -11 10 -6 0 -9 -8 -7 -18 2 -9 11 -16 21 -16 9 1 17
-2 17 -8 0 -5 5 -6 10 -3 6 3 10 -3 10 -14 0 -33 1 -35 15 -51 7 -8 19 -36 25
-62 7 -25 26 -61 43 -81 66 -72 128 -247 87 -247 -5 0 -13 12 -19 28 -9 24
-10 23 -5 -13 6 -39 31 -91 40 -82 3 2 0 16 -6 31 -15 40 9 22 26 -20 18 -44
19 -60 1 -45 -8 6 -16 8 -20 5 -9 -10 4 -34 19 -34 8 0 14 -9 14 -20 0 -12 14
-29 35 -42 26 -18 35 -30 35 -52 0 -24 -2 -27 -15 -16 -9 7 -18 10 -21 7 -7
-7 26 -57 38 -57 16 0 68 -64 57 -70 -12 -8 -1 -40 13 -40 6 0 7 8 4 17 -3 10
5 5 19 -12 20 -24 22 -31 10 -33 -18 -4 -20 -28 -2 -39 7 -4 17 -21 22 -38 6
-16 16 -30 23 -30 17 0 130 -93 143 -117 8 -15 8 -22 0 -27 -14 -9 157 -192
207 -222 43 -26 81 -67 82 -89 0 -27 174 -182 230 -207 14 -6 59 -36 100 -66
74 -57 240 -144 315 -167 22 -7 49 -21 60 -30 11 -10 38 -23 61 -29 22 -6 101
-42 175 -79 114 -59 148 -71 219 -81 46 -7 100 -19 119 -26 57 -21 371 -48
382 -32 3 5 53 13 110 19 57 6 113 14 124 19 35 14 89 22 134 20 32 -2 42 1
39 11 -3 8 -16 12 -31 10 -66 -8 3 41 103 73 82 26 148 62 166 90 9 14 25 25
35 25 11 0 29 16 43 37 40 64 71 87 106 79 19 -3 29 -2 25 4 -3 6 -16 10 -28
10 -19 0 -22 6 -22 40 -1 22 3 40 7 40 4 0 8 14 8 30 0 17 10 44 21 60 20 27
21 35 13 126 -8 81 -12 99 -29 108 -11 6 -25 17 -31 25 -6 8 -15 11 -21 8 -5
-3 -14 12 -20 34 l-11 40 41 -7 c38 -6 40 -5 28 10 -7 9 -30 21 -50 27 -27 8
-43 21 -57 47 -22 43 -211 242 -229 242 -13 0 -164 87 -205 118 -14 10 -40 24
-57 30 -18 6 -49 23 -68 37 -19 15 -49 27 -67 28 -27 2 -34 7 -37 27 -5 42
-41 55 -41 16 0 -35 -10 -56 -27 -56 -8 0 -11 4 -8 10 3 5 -1 24 -9 42 -8 18
-16 51 -18 73 -2 30 -8 41 -22 43 -14 3 -17 0 -13 -12 9 -22 -2 -46 -20 -46
-11 0 -14 -7 -10 -21 5 -20 4 -20 -13 -4 -13 12 -16 24 -11 48 4 18 4 43 1 57
l-7 25 -13 -27 c-15 -32 -22 -34 -55 -12 -24 16 -25 16 -23 -6 2 -13 -3 -25
-9 -27 -8 -3 -13 5 -13 22 0 29 -48 85 -74 85 -8 0 -32 18 -52 40 -26 28 -41
37 -49 30 -8 -7 -18 -3 -32 13 -20 22 -37 77 -23 77 3 0 5 15 4 33 -2 43 -3
45 -15 25 -5 -9 -16 -15 -23 -12 -8 3 -22 -9 -34 -29 l-20 -35 21 -21 c12 -11
16 -21 10 -21 -7 0 -24 16 -39 35 -27 36 -27 36 -7 50 19 13 19 18 9 47 -18
50 -36 79 -46 73 -5 -3 -6 -13 -3 -23 6 -15 5 -15 -10 -3 -10 8 -17 28 -17 47
0 22 -5 34 -14 34 -17 0 -31 27 -35 67 0 6 -16 20 -35 31 -30 18 -33 24 -30
56 6 53 -37 114 -49 69 -4 -15 -5 -16 -6 -2 -1 18 -73 33 -80 17 -4 -13 -91
79 -91 97 0 7 -4 16 -9 19 -5 4 -24 41 -41 84 -18 42 -37 83 -43 91 -22 26
-70 173 -97 296 -12 55 -25 104 -28 110 -3 5 -7 28 -9 50 -7 94 -15 145 -22
140 -5 -2 -6 7 -3 20 7 38 -9 145 -18 120 -4 -11 -3 -33 1 -50 11 -38 11 -38
-2 -29 -18 10 8 -275 30 -330 6 -16 10 -31 7 -33 -2 -2 2 -16 9 -30 8 -15 12
-30 9 -35 -3 -4 11 -55 31 -114 41 -124 44 -148 9 -79 -14 28 -31 55 -38 60
-25 21 -98 478 -80 506 2 4 -1 29 -7 56 -11 50 -14 309 -3 353 3 14 6 32 6 40
0 23 29 193 35 210 4 8 7 28 9 44 5 64 92 314 121 347 7 9 31 52 53 95 49 98
79 148 91 152 5 2 9 12 9 22 0 9 7 23 15 30 8 7 15 18 15 24 0 10 22 38 148
186 79 93 224 240 277 281 28 22 84 66 125 99 41 33 91 68 110 77 19 9 53 28
75 42 73 47 79 50 150 86 39 20 77 44 85 55 8 10 32 25 53 34 21 8 45 22 53
31 9 8 23 15 32 15 9 0 41 9 71 20 29 12 73 22 96 24 24 2 47 6 51 8 5 3 32 9
59 12 64 9 177 36 190 46 9 7 35 12 128 26 20 4 37 10 37 14 0 11 -94 19 -155
14 -101 -8 -200 -22 -217 -29 -11 -4 -18 -3 -18 4 0 6 -13 11 -30 11 -20 0
-30 -5 -30 -15 0 -9 -9 -15 -22 -15 -17 0 -20 3 -9 9 21 14 5 45 -19 37 -11
-3 -30 -8 -42 -11 l-23 -6 23 10 c12 6 31 19 43 30 11 10 35 22 52 26 58 12
192 36 207 36 8 0 38 7 65 14 57 16 145 26 143 16 -2 -17 5 -18 40 -9 64 16
104 20 97 8 -3 -5 3 -10 14 -10 11 0 22 4 25 8 3 5 19 7 35 4 17 -2 28 -8 26
-12 -3 -5 13 -8 36 -8 23 0 36 4 29 8 -17 11 7 18 50 15 58 -5 190 -24 213
-31 22 -7 22 -7 2 -15 -11 -5 6 -6 40 -3 80 7 107 6 119 -6 7 -7 0 -10 -20
-11 l-29 -1 30 -9 c18 -5 33 -5 39 1 6 6 25 10 44 10 21 0 31 4 27 11 -4 5
-17 9 -30 7 -12 -1 -28 2 -36 9 -13 11 -164 53 -189 53 -6 0 -8 -5 -4 -11 3
-6 -8 -4 -24 5 -17 9 -51 16 -77 16 -25 0 -45 5 -45 10 0 6 -11 10 -25 10 -26
0 -34 14 -12 24 6 4 -4 3 -23 -1 -44 -8 -106 -6 -145 6 -30 9 -30 9 10 10 55
2 25 21 -32 21 -24 0 -43 4 -43 9 0 9 55 7 89 -4 37 -11 121 -22 121 -15 0 4
26 2 58 -3 75 -12 102 -13 131 -3 16 6 21 5 17 -3 -5 -7 3 -11 23 -11 19 0 34
-7 40 -18 12 -22 85 -29 109 -10 12 10 14 10 8 1 -5 -9 -1 -13 11 -13 10 0 29
-7 41 -16 22 -15 62 -11 62 7 0 5 -14 12 -30 16 -17 3 -29 11 -27 17 5 14 58
11 67 -4 4 -6 11 -10 16 -8 13 4 248 -75 252 -84 2 -5 10 -8 18 -8 8 0 19 -11
24 -25 5 -14 21 -30 35 -37 16 -7 25 -19 25 -34 0 -12 7 -25 16 -28 24 -9 31
-7 14 4 -12 8 -10 10 10 10 28 0 209 -116 325 -208 109 -86 361 -347 402 -416
20 -34 42 -65 47 -71 22 -20 66 -84 66 -94 0 -6 4 -11 8 -11 4 0 24 -25 43
-55 25 -41 38 -53 52 -49 12 4 17 0 17 -13 1 -20 24 -55 32 -47 9 9 60 -52 73
-87 7 -19 17 -47 24 -62 8 -20 8 -26 0 -21 -12 7 -4 -30 13 -56 6 -10 8 -6 3
15 -10 53 11 6 43 -95 42 -133 56 -191 54 -217 -1 -13 2 -23 7 -23 11 0 41
-182 48 -290 3 -47 9 -92 14 -100 7 -12 8 -10 9 8 0 12 5 22 11 22 8 0 10 17
4 58 -13 94 -18 155 -17 200 1 23 -3 42 -8 42 -5 0 -12 26 -16 57 -4 31 -15
75 -24 97 -10 23 -21 61 -25 86 -4 24 -14 54 -21 65 -8 12 -16 36 -18 55 -5
38 -20 77 -71 185 -18 39 -36 84 -40 101 -3 17 -14 40 -24 50 -10 11 -16 25
-13 32 3 10 7 9 16 -4 11 -15 13 -13 14 16 0 17 -4 44 -9 58 -8 22 -8 23 6 12
8 -7 15 -20 15 -30 0 -10 7 -23 15 -30 8 -7 15 -16 15 -20 0 -4 8 -25 17 -46
16 -39 18 -45 22 -74 1 -13 3 -13 12 0 9 13 10 12 5 -2 -6 -21 3 -50 14 -43
10 6 34 -51 26 -63 -8 -13 3 -42 16 -42 5 0 6 5 3 10 -3 6 -2 10 3 10 11 0 10
-55 -1 -66 -11 -11 -8 -54 3 -54 6 0 8 11 4 26 -5 19 -4 25 5 20 6 -4 11 -2
11 4 0 6 5 8 10 5 6 -3 10 -13 10 -21 0 -8 -4 -12 -10 -9 -18 11 -10 -12 13
-37 13 -14 21 -30 19 -36 -2 -7 1 -12 6 -12 5 0 12 -15 15 -32 8 -53 37 -149
52 -172 15 -23 39 -118 54 -211 18 -111 22 -269 11 -425 -5 -85 -12 -189 -15
-230 -6 -85 -22 -203 -31 -239 -5 -17 -4 -22 4 -17 7 4 12 15 12 25 0 10 7 32
15 47 8 16 15 40 15 54 0 17 3 21 10 14 8 -8 6 -32 -4 -82 -8 -39 -17 -104
-20 -144 l-6 -73 13 50 c7 28 16 55 19 60 3 6 9 42 12 80 11 123 28 227 36
218 4 -4 4 -35 -1 -68 -4 -33 -11 -92 -14 -131 -3 -39 -10 -86 -15 -105 -5
-18 -8 -35 -5 -37 2 -3 6 1 9 9 42 149 48 120 10 -50 -32 -142 -74 -276 -121
-384 -19 -45 -40 -98 -45 -117 -13 -46 -47 -102 -58 -95 -5 3 -14 -3 -19 -14
-8 -14 -8 -20 2 -24 9 -3 9 -7 -2 -20 -7 -10 -10 -17 -5 -17 4 0 19 12 32 28
22 26 23 26 11 2 -20 -42 -50 -80 -61 -77 -5 1 -12 -11 -13 -26 -3 -25 -2 -27
12 -15 14 11 15 10 8 -12 -4 -14 -16 -33 -26 -43 -23 -22 -52 -77 -45 -84 3
-3 13 11 22 31 10 20 21 36 26 36 12 0 50 80 45 94 -3 7 7 26 22 42 15 16 33
44 40 62 7 17 17 32 22 32 4 0 0 -19 -11 -42 -40 -90 14 -41 69 62 16 30 48
102 71 160 22 58 47 119 56 135 8 17 26 70 40 120 14 49 29 94 33 100 5 5 14
34 21 63 15 65 33 80 24 20 -4 -24 -3 -40 1 -36 5 4 11 27 15 50 4 24 10 57
14 73 6 23 5 26 -3 15 -9 -12 -11 -11 -11 8 0 12 4 22 9 22 5 0 12 14 16 30 4
17 11 27 16 24 6 -4 9 13 7 43 -2 33 1 47 9 46 7 -2 14 19 18 55 3 31 11 95
17 142 14 97 16 393 5 488 -6 44 -5 62 2 57 11 -6 4 21 -9 40 -4 6 -11 30 -14
55 -11 73 -46 239 -67 322 -22 89 -23 91 -8 82 7 -4 10 -3 7 2 -33 71 -50 115
-59 153 -15 69 -41 145 -52 152 -6 4 -6 13 1 25 9 17 13 14 31 -26 11 -25 21
-40 21 -34 0 20 -31 86 -66 141 -19 29 -34 60 -34 67 0 8 -21 54 -46 102 -25
49 -37 78 -25 64 11 -14 21 -30 21 -37 0 -6 6 -18 13 -25 22 -22 174 -339 201
-420 40 -119 40 -116 26 -95 -6 9 -15 17 -21 17 -5 0 4 -20 21 -46 18 -25 29
-52 26 -60 -3 -9 3 -27 14 -41 11 -14 22 -41 26 -62 3 -20 17 -79 30 -131 32
-128 78 -542 54 -485 -5 11 -9 42 -9 68 -1 71 -16 49 -19 -27 -1 -42 2 -66 9
-66 8 0 9 -21 5 -65 -5 -53 -4 -63 8 -59 32 12 1 -386 -45 -586 -23 -101 -103
-356 -131 -420 -11 -25 -26 -58 -33 -75 -7 -16 -26 -59 -43 -95 -16 -36 -42
-94 -57 -130 -15 -36 -40 -81 -56 -101 -16 -20 -29 -43 -29 -51 0 -15 -90
-149 -184 -273 -91 -120 -176 -217 -310 -353 -66 -67 -117 -122 -113 -122 5 0
1 -7 -8 -16 -19 -19 -15 -27 9 -18 9 4 16 14 14 23 -1 9 59 77 148 166 100 99
185 197 255 290 57 77 107 145 112 150 4 6 35 53 68 105 63 100 79 121 79 104
0 -15 -201 -334 -226 -359 -14 -14 -46 -75 -40 -75 3 0 24 27 46 60 49 72 61
78 24 13 -29 -52 -151 -203 -164 -203 -4 0 -10 -10 -14 -22 -3 -13 -59 -79
-125 -148 -66 -69 -121 -128 -121 -131 0 -4 -17 -19 -37 -35 -21 -16 -45 -35
-53 -44 -9 -8 -53 -43 -98 -78 -44 -35 -87 -70 -94 -79 -12 -15 -10 -14 18 0
17 9 34 13 37 10 4 -3 14 0 24 8 9 8 14 9 10 3 -4 -6 -48 -40 -99 -74 -51 -35
-97 -69 -103 -76 -14 -17 -96 -68 -119 -74 -30 -8 -31 -29 -2 -26 33 4 24 -10
-22 -32 -20 -10 -55 -29 -76 -42 -22 -14 -36 -19 -32 -12 4 6 -17 0 -46 -13
-29 -14 -52 -29 -51 -33 1 -5 -12 -9 -28 -9 -16 0 -38 -8 -47 -17 -16 -17 -16
-17 15 -2 39 20 49 20 34 3 -9 -11 -5 -13 19 -12 45 3 19 -22 -32 -30 -23 -4
-36 -10 -29 -14 9 -6 8 -11 -3 -21 -23 -18 -10 -30 24 -20 32 9 169 66 269
111 35 16 68 29 75 29 6 0 19 9 29 20 21 25 46 28 26 3 -18 -22 105 45 137 74
14 13 26 23 28 23 2 0 45 28 96 62 51 35 114 77 139 94 25 17 52 38 60 47 7
10 22 17 31 17 10 0 27 11 38 25 11 14 23 25 26 25 7 0 157 128 167 142 16 24
212 218 220 218 5 0 9 6 9 13 0 8 30 45 68 84 37 39 81 88 99 109 66 81 110
140 124 165 8 14 27 46 43 70 16 24 45 75 64 114 20 38 43 80 53 92 28 38 169
387 169 421 0 11 5 22 10 24 23 7 120 400 146 588 29 215 34 296 34 542 -1
297 -4 374 -19 392 -6 7 -9 15 -7 17 3 2 -4 61 -15 129 -34 212 -40 263 -42
335 -2 76 -41 190 -60 178 -6 -3 -7 -1 -3 5 4 7 0 22 -8 34 -9 12 -16 34 -16
48 0 14 -11 48 -23 76 -13 27 -33 72 -44 99 -75 182 -104 246 -131 285 -17 25
-26 47 -21 48 5 2 6 9 2 15 -4 7 1 6 10 -2 9 -7 17 -19 17 -26 0 -7 7 -18 15
-25 8 -7 25 -33 37 -59 13 -25 26 -47 31 -49 4 -2 7 -9 7 -15 0 -7 13 -40 30
-75 16 -34 27 -68 24 -76 -3 -7 2 -29 10 -47 14 -29 15 -30 11 -7 -3 14 -7 34
-10 45 -3 10 7 -6 21 -36 41 -84 105 -282 98 -304 -4 -12 -2 -17 4 -13 6 4 8
-2 5 -15 -4 -13 0 -26 9 -33 14 -10 33 -65 45 -129 3 -16 12 -31 20 -34 8 -3
11 -13 8 -23 -3 -9 3 -54 14 -99 11 -45 17 -89 15 -96 -3 -8 1 -38 10 -69 11
-36 16 -90 15 -163 -1 -71 -4 -98 -9 -78 l-8 30 -1 -36 c0 -20 2 -39 5 -42 13
-12 13 -470 1 -505 -9 -26 -9 -35 2 -41 11 -7 11 -23 0 -95 -7 -47 -16 -86
-20 -86 -13 0 -20 -83 -11 -115 l9 -30 7 30 c4 17 12 38 17 48 6 10 7 32 4 48
-4 17 -2 36 4 43 10 12 30 244 31 349 0 21 4 36 9 32 40 -24 12 474 -38 680
-6 22 -14 69 -20 105 -5 36 -13 75 -17 88 -5 18 -3 21 10 16 11 -4 16 -1 16
11 0 12 -6 16 -18 13 -21 -6 -42 20 -42 53 0 11 -7 27 -15 36 -11 10 -13 19
-6 27 13 15 6 43 -30 131 -16 39 -49 124 -75 190 -26 66 -59 147 -75 181 -16
34 -29 65 -29 71 0 26 -145 280 -204 356 -27 36 -56 87 -70 122 -11 29 4 14
30 -30 14 -25 30 -45 35 -45 16 0 10 36 -10 54 -10 9 -26 34 -36 56 -10 22
-24 40 -32 40 -7 0 -13 4 -13 9 0 5 -16 26 -35 47 -19 21 -37 46 -41 56 -3 10
-9 18 -14 18 -10 0 -83 100 -86 119 -6 34 -44 39 -44 5 0 -8 -4 -13 -9 -10 -4
3 -6 16 -4 28 3 16 -3 27 -16 36 -19 11 -21 10 -21 -11 0 -13 6 -29 13 -36 10
-10 9 -11 -5 -6 -10 4 -19 13 -19 21 -4 38 -18 61 -42 68 -16 4 -19 8 -9 14
10 7 8 14 -8 35 -19 24 -19 26 -4 35 14 8 33 -6 98 -69 44 -44 81 -79 82 -79
1 0 -1 12 -5 28 -4 15 -14 27 -24 27 -9 0 -35 22 -57 48 -76 93 -124 126 -103
71 4 -11 -7 -3 -25 16 -29 32 -31 33 -32 13 0 -13 -4 -23 -9 -23 -16 0 -40 41
-34 57 7 18 -16 34 -38 28 -9 -3 -22 2 -29 10 -11 13 -10 14 4 9 21 -8 21 4
-1 28 -31 34 -8 26 51 -18 33 -24 63 -44 67 -44 5 0 -21 31 -58 70 -36 38 -69
68 -72 67 -3 -1 -35 27 -71 62 -36 36 -69 64 -73 63 -4 -1 -38 22 -75 51 -155
124 -325 225 -645 383 -16 8 -35 14 -42 14 -7 0 -15 6 -18 13 -3 7 -23 19 -44
25 -22 7 -48 21 -58 32 -17 19 -13 18 55 -5 41 -14 78 -25 84 -25 13 1 -60 40
-83 45 -9 2 -38 13 -64 24 -27 12 -83 30 -125 41 -42 10 -104 28 -137 39 -56
19 -93 19 -64 0 21 -13 -2 -11 -57 6 -59 18 -54 17 -54 5 0 -5 11 -12 25 -16
14 -4 24 -11 22 -18 -2 -6 34 -24 87 -43 90 -31 90 -45 -1 -20 -38 10 -47 10
-51 -1 -2 -8 -8 -10 -15 -4 -10 8 -52 21 -72 23 -2 0 -19 4 -36 9 -25 8 -30 6
-25 -6 4 -11 0 -13 -19 -8 -15 4 -25 2 -25 -4 0 -13 -52 3 -87 26 -13 8 -23
10 -23 4 0 -6 6 -13 13 -16 6 -3 -1 -4 -18 -1 -16 3 -82 13 -145 23 -82 12
-104 18 -76 20 34 3 66 20 66 36 0 13 -28 5 -34 -9 -4 -13 -10 -14 -26 -5 -11
6 -26 7 -33 3 -13 -8 -130 -6 -160 3 -9 3 -15 10 -12 15 4 5 -9 9 -27 9 -31 1
-32 1 -14 15 18 14 16 15 -30 14 -43 -1 -45 -2 -19 -9 27 -7 26 -8 -15 -9 -32
0 -41 2 -30 9 12 8 11 10 -7 10 -13 0 -23 -4 -23 -10 0 -13 -41 -13 -76 0 -20
8 -24 14 -16 22 7 7 63 8 179 4 269 -11 306 -14 336 -25 16 -6 45 -11 65 -11
21 0 53 -5 72 -10 19 -6 57 -13 85 -16 27 -3 57 -10 66 -15 9 -4 31 -11 49
-14 29 -5 32 -4 20 10 -7 8 -21 15 -31 15 -11 0 -19 4 -19 9 0 5 -15 14 -32
20 -18 7 -46 19 -62 27 -19 10 -33 11 -39 5 -6 -6 -28 -1 -62 14 -29 13 -84
26 -121 29 -38 3 -90 10 -117 14 -40 8 -47 7 -45 -7 3 -13 -5 -15 -42 -13 -25
2 -49 8 -55 13 -6 7 6 8 34 3 42 -7 43 -6 32 15 -14 25 -14 25 -52 6 -36 -19
-129 -17 -129 3 0 14 -10 14 -70 -2z m153 -33 c-7 -2 -21 -2 -30 0 -10 3 -4 5
12 5 17 0 24 -2 18 -5z m-264 -43 c24 0 31 -4 31 -20 0 -15 -7 -20 -26 -20
-14 0 -23 4 -19 10 7 11 -52 15 -142 11 -34 -2 -53 1 -53 8 0 7 24 11 64 11
36 0 68 5 71 10 4 7 12 7 25 0 10 -5 32 -10 49 -10z m-246 -17 c-7 -2 -21 -2
-30 0 -10 3 -4 5 12 5 17 0 24 -2 18 -5z m522 -43 c-25 -11 -102 -11 -135 0
-17 5 5 8 65 8 59 0 83 -2 70 -8z m103 -27 c-10 -2 -26 -2 -35 0 -10 3 -2 5
17 5 19 0 27 -2 18 -5z m790 -18 c10 -10 -61 5 -72 15 -5 5 8 5 29 0 20 -4 40
-11 43 -15z m197 -65 c3 -5 -1 -10 -9 -10 -8 0 -18 5 -21 10 -3 6 1 10 9 10 8
0 18 -4 21 -10z m-305 -30 c12 -8 9 -10 -13 -10 -16 0 -26 4 -22 10 8 12 16
12 35 0z m158 -27 c-10 -2 -18 -7 -18 -10 0 -3 8 -12 18 -19 14 -11 14 -13 2
-14 -9 0 -23 9 -32 19 -18 21 -10 30 27 29 17 0 17 -1 3 -5z m173 -23 c24 -11
37 -19 29 -19 -15 0 -91 38 -79 39 4 0 26 -9 50 -20z m-72 -7 c21 -5 20 -7
-15 -19 -41 -14 -73 -2 -44 16 18 11 27 12 59 3z m-2524 -23 c-3 -5 -12 -10
-18 -10 -7 0 -6 4 3 10 19 12 23 12 15 0z m2799 -52 c34 -13 197 -97 211 -109
5 -5 0 -9 -12 -9 -27 0 -40 -19 -22 -31 10 -6 8 -9 -9 -9 -16 0 -26 7 -29 20
-3 11 -10 20 -17 20 -6 0 -5 4 3 9 11 7 9 14 -14 35 -15 14 -38 26 -50 26 -12
0 -34 9 -49 21 -35 27 -53 14 -21 -16 18 -16 22 -25 13 -28 -9 -3 -7 -9 7 -21
12 -9 15 -15 7 -16 -7 0 -23 11 -36 25 -13 14 -30 25 -37 25 -18 0 -98 49 -81
50 7 0 10 5 7 11 -4 6 1 16 11 24 16 11 24 11 54 -2 19 -8 48 -20 64 -25z
m-194 22 c8 -5 12 -11 10 -14 -3 -2 -14 2 -24 10 -22 15 -10 19 14 4z m-2927
-121 c-10 -21 -20 -26 -60 -28 -26 -1 -50 -4 -55 -7 -4 -3 -8 0 -8 5 0 6 11
11 25 11 15 0 31 9 40 24 10 16 24 23 43 22 27 -1 27 -2 15 -27z m3372 -29 c3
-6 -1 -7 -9 -4 -18 7 -21 14 -7 14 6 0 13 -4 16 -10z m138 -82 c26 -17 45 -33
42 -36 -8 -8 -165 100 -159 110 3 5 20 -3 37 -17 18 -14 53 -40 80 -57z
m-3673 55 c-8 -3 -23 -15 -32 -27 -13 -16 -20 -18 -29 -9 -8 8 -4 15 17 27 16
8 36 15 44 15 13 -1 13 -1 0 -6z m3530 -25 c0 -14 -16 -9 -36 13 -19 21 -19
21 9 8 15 -7 27 -16 27 -21z m335 -158 c3 -5 2 -10 -4 -10 -5 0 -13 5 -16 10
-3 6 -2 10 4 10 5 0 13 -4 16 -10z m30 -20 c3 -5 1 -10 -4 -10 -6 0 -11 5 -11
10 0 6 2 10 4 10 3 0 8 -4 11 -10z m82 -76 c-9 -10 -38 16 -31 28 4 6 13 4 22
-6 9 -8 13 -19 9 -22z m88 -74 c10 -11 16 -20 13 -20 -3 0 -13 9 -23 20 -10
11 -16 20 -13 20 3 0 13 -9 23 -20z m250 -340 c3 -5 1 -10 -4 -10 -6 0 -11 5
-11 10 0 6 2 10 4 10 3 0 8 -4 11 -10z m-2322 -37 c-7 -2 -21 -2 -30 0 -10 3
-4 5 12 5 17 0 24 -2 18 -5z m-109 -33 c9 0 15 3 12 8 -2 4 14 6 35 4 60 -6
39 -14 -41 -17 -53 -2 -68 1 -60 10 5 6 6 16 2 21 -4 5 2 1 14 -9 11 -9 28
-17 38 -17z m378 -34 c45 -7 75 -18 89 -33 l22 -22 -21 6 c-12 3 -22 12 -22
21 0 12 -9 14 -45 9 -25 -4 -47 -2 -50 3 -3 6 -17 10 -31 10 -13 0 -24 4 -24
9 0 5 -6 11 -12 14 -7 2 -4 2 7 0 11 -3 50 -10 87 -17z m-292 -5 c0 -5 -9 -7
-20 -4 -11 3 -20 7 -20 9 0 2 9 4 20 4 11 0 20 -4 20 -9z m485 -45 c-19 -14
-45 -11 -45 5 0 5 14 9 32 9 30 0 30 -1 13 -14z m-78 -22 c-3 -3 -12 -4 -19
-1 -8 3 -5 6 6 6 11 1 17 -2 13 -5z m1535 -75 c21 -13 38 -26 38 -29 0 -3 -13
-6 -29 -7 -23 -2 -37 7 -72 50 l-44 52 35 -21 c19 -11 52 -31 72 -45z m-912 1
c18 -12 2 -12 -25 0 -13 6 -15 9 -5 9 8 0 22 -4 30 -9z m140 -81 c36 -25 76
-52 88 -58 13 -7 21 -15 19 -18 -3 -2 -37 16 -76 41 -38 25 -74 46 -78 46 -4
0 -24 14 -43 31 l-35 29 30 -12 c17 -6 59 -33 95 -59z m827 -6 c16 -16 55 -50
88 -78 65 -55 100 -92 100 -105 0 -5 8 -17 17 -27 48 -50 70 -84 63 -101 -6
-15 -9 -14 -23 8 -10 13 -34 44 -54 68 -21 24 -43 52 -49 63 -18 35 -41 59
-116 121 -68 55 -86 78 -64 78 5 0 22 -12 38 -27z m-987 -19 c0 -2 -9 0 -20 6
-11 6 -20 13 -20 16 0 2 9 0 20 -6 11 -6 20 -13 20 -16z m-1865 -14 c-11 -5
-29 -9 -40 -9 l-20 0 20 9 c11 5 29 9 40 9 l20 0 -20 -9z m95 2 c0 -13 -47
-32 -77 -32 -33 0 -22 12 25 26 48 15 52 16 52 6z m87 -8 c-3 -3 -12 -4 -19
-1 -8 3 -5 6 6 6 11 1 17 -2 13 -5z m1994 -61 c13 -16 12 -17 -3 -4 -10 7 -18
15 -18 17 0 8 8 3 21 -13z m40 -30 c13 -16 12 -17 -3 -4 -10 7 -18 15 -18 17
0 8 8 3 21 -13z m169 -158 l25 -30 -33 29 c-17 17 -32 34 -32 40 0 6 3 6 8 1
4 -6 18 -23 32 -40z m757 -47 c-3 -8 -6 -5 -6 6 -1 11 2 17 5 13 3 -3 4 -12 1
-19z m78 -98 c9 0 12 -6 9 -15 -3 -8 1 -22 10 -30 19 -20 21 -36 3 -30 -6 3
-24 27 -40 54 -29 53 -36 79 -11 43 8 -12 21 -22 29 -22z m-675 -12 l23 -33
-26 24 c-15 14 -27 28 -27 33 0 14 5 9 30 -24z m-5 -86 c-7 -7 -45 29 -45 41
0 6 11 0 25 -13 14 -13 23 -26 20 -28z m75 18 c16 -16 30 -32 30 -36 0 -14 51
-74 63 -74 18 -1 47 -45 51 -80 4 -40 -4 -38 -34 7 -14 21 -53 75 -87 120 -35
46 -63 85 -63 88 0 10 10 4 40 -25z m24 -132 c2 -17 31 -63 55 -90 25 -26 58
-85 39 -71 -8 7 -18 10 -21 6 -4 -3 -7 -1 -7 5 0 7 -8 21 -17 32 -10 11 -18
24 -19 28 -1 14 -67 112 -75 112 -5 0 -9 10 -9 22 0 22 0 22 26 -3 14 -14 26
-33 28 -41z m159 -50 c17 -32 17 -32 0 -8 -10 13 -25 32 -34 41 -8 8 -19 24
-22 35 -9 26 33 -25 56 -68z m579 -12 c10 -21 18 -48 18 -60 0 -18 -2 -17 -18
9 -10 17 -23 45 -30 62 -16 47 7 39 30 -11z m-6142 -31 c-6 -19 -15 -37 -20
-40 -4 -3 -1 18 8 46 9 28 18 46 20 40 2 -6 -2 -27 -8 -46z m5590 -76 c0 -6
-13 5 -30 23 -16 18 -30 37 -30 43 1 13 60 -52 60 -66z m24 16 c3 -8 1 -15 -4
-15 -6 0 -10 7 -10 15 0 8 2 15 4 15 2 0 6 -7 10 -15z m-89 -65 c8 0 17 -4 20
-10 4 -6 -1 -7 -11 -3 -14 5 -15 3 -4 -17 9 -17 14 -19 20 -10 6 9 11 7 20
-10 6 -12 9 -24 6 -28 -3 -3 -6 0 -6 7 0 7 -6 11 -12 9 -19 -7 -51 29 -54 59
-1 16 0 22 3 16 2 -7 11 -13 18 -13z m693 -31 c-3 -8 -7 -3 -11 10 -4 17 -3
21 5 13 5 -5 8 -16 6 -23z m52 -100 c0 -6 6 -25 14 -42 8 -18 19 -53 25 -78 6
-26 14 -55 17 -65 4 -11 4 -16 0 -13 -4 4 -27 61 -50 129 -33 91 -39 116 -25
101 10 -11 19 -25 19 -32z m177 -1346 c-3 -10 -5 -4 -5 12 0 17 2 24 5 18 2
-7 2 -21 0 -30z m-3 -106 c-9 -45 -19 -23 -15 35 4 49 5 51 12 23 5 -16 6 -42
3 -58z m-6580 -293 c3 -8 2 -12 -4 -9 -6 3 -10 10 -10 16 0 14 7 11 14 -7z
m6504 -97 c-37 -131 -97 -292 -98 -261 0 17 39 137 55 165 8 14 16 41 18 60 2
19 10 61 17 94 12 49 15 55 20 35 4 -14 -2 -56 -12 -93z m-6469 3 c0 -10 -3
-8 -9 5 -5 12 -9 14 -9 6 -1 -8 -3 -12 -6 -9 -3 3 -2 13 1 22 5 14 9 15 15 4
5 -7 8 -20 8 -28z m15 -238 c-1 -2 -8 6 -14 18 -8 14 -9 40 -3 78 l8 57 5 -75
c3 -41 5 -77 4 -78z m13 66 c-3 -8 -6 -5 -6 6 -1 11 2 17 5 13 3 -3 4 -12 1
-19z m6324 -159 c-11 -24 -20 -39 -20 -32 -1 14 31 84 36 79 2 -2 -5 -23 -16
-47z m-30 -71 c-18 -44 -50 -103 -51 -91 0 6 11 34 26 62 26 52 41 69 25 29z
m-58 -128 c-3 -11 -10 -23 -16 -27 -5 -3 -8 -2 -5 3 3 5 8 17 11 27 9 24 16
22 10 -3z m-33 -68 c0 -5 -7 -17 -15 -28 -14 -18 -14 -17 -4 9 12 27 19 34 19
19z m-6000 -135 c0 -5 -4 -5 -10 -2 -5 3 -10 14 -10 23 0 15 2 15 10 2 5 -8
10 -19 10 -23z m5801 -250 c-10 -9 -11 -8 -5 6 3 10 9 15 12 12 3 -3 0 -11 -7
-18z m-3883 -82 c-3 -3 -9 2 -12 12 -6 14 -5 15 5 6 7 -7 10 -15 7 -18z
m-1560 -351 c28 -19 30 -39 2 -24 -11 6 -20 7 -20 3 0 -10 -20 19 -20 30 0 11
14 8 38 -9z m-3 -54 c3 -5 1 -10 -4 -10 -6 0 -11 5 -11 10 0 6 2 10 4 10 3 0
8 -4 11 -10z"/>
<path d="M4310 7610 c0 -5 11 -10 25 -10 14 0 25 5 25 10 0 6 -11 10 -25 10
-14 0 -25 -4 -25 -10z"/>
<path d="M5655 7360 c3 -5 11 -10 16 -10 6 0 17 -7 26 -15 8 -9 18 -13 22 -10
8 9 -37 45 -56 45 -8 0 -11 -4 -8 -10z"/>
<path d="M6850 6333 c0 -7 13 -27 30 -45 16 -18 29 -28 29 -23 0 15 -58 82
-59 68z"/>
<path d="M4368 6323 c6 -2 18 -2 25 0 6 3 1 5 -13 5 -14 0 -19 -2 -12 -5z"/>
<path d="M4418 6313 c7 -3 16 -2 19 1 4 3 -2 6 -13 5 -11 0 -14 -3 -6 -6z"/>
<path d="M4458 6303 c7 -3 16 -2 19 1 4 3 -2 6 -13 5 -11 0 -14 -3 -6 -6z"/>
<path d="M4837 6273 c-13 -12 -7 -23 12 -23 26 0 35 16 15 24 -19 7 -19 7 -27
-1z"/>
<path d="M4625 6260 c-3 -5 -2 -10 4 -10 5 0 13 5 16 10 3 6 2 10 -4 10 -5 0
-13 -4 -16 -10z"/>
<path d="M4955 6240 c3 -5 13 -10 21 -10 8 0 12 5 9 10 -3 6 -13 10 -21 10 -8
0 -12 -4 -9 -10z"/>
<path d="M4876 6232 c-2 -4 7 -13 21 -19 20 -10 23 -9 13 2 -8 10 -8 14 2 18
7 3 3 6 -9 6 -12 1 -24 -2 -27 -7z"/>
<path d="M4940 6219 c0 -4 16 -9 35 -11 19 -2 35 -1 35 3 0 4 -16 9 -35 11
-19 2 -35 1 -35 -3z"/>
<path d="M6951 6209 c8 -16 14 -18 22 -10 9 9 8 14 -3 21 -24 16 -31 11 -19
-11z"/>
<path d="M4011 6196 c-9 -11 -8 -15 5 -20 23 -9 24 -8 24 14 0 23 -13 26 -29
6z"/>
<path d="M4150 6190 c-13 -8 -13 -10 2 -10 9 0 20 5 23 10 8 13 -5 13 -25 0z"/>
<path d="M4240 6175 c-7 -9 -11 -18 -8 -20 3 -3 11 1 18 10 7 9 11 18 8 20 -3
3 -11 -1 -18 -10z"/>
<path d="M7010 6170 c6 -11 15 -20 21 -20 6 0 6 7 -1 20 -6 11 -15 20 -21 20
-6 0 -6 -7 1 -20z"/>
<path d="M4749 6165 c37 -17 60 -20 46 -6 -6 5 -26 12 -45 15 l-35 7 34 -16z"/>
<path d="M6960 6153 c0 -23 15 -39 24 -25 3 5 -1 18 -9 28 -14 18 -14 18 -15
-3z"/>
<path d="M3638 6153 c7 -3 16 -2 19 1 4 3 -2 6 -13 5 -11 0 -14 -3 -6 -6z"/>
<path d="M4832 6140 c31 -19 98 -39 98 -30 0 6 -9 10 -19 10 -11 0 -21 4 -23
9 -1 5 -19 12 -38 15 -27 5 -31 4 -18 -4z"/>
<path d="M3588 6133 c6 -2 18 -2 25 0 6 3 1 5 -13 5 -14 0 -19 -2 -12 -5z"/>
<path d="M4170 6126 c0 -9 40 -13 46 -5 3 5 -6 9 -20 9 -14 0 -26 -2 -26 -4z"/>
<path d="M4598 6123 c6 -2 18 -2 25 0 6 3 1 5 -13 5 -14 0 -19 -2 -12 -5z"/>
<path d="M4950 6096 c0 -2 7 -6 15 -10 8 -3 15 -1 15 4 0 6 -7 10 -15 10 -8 0
-15 -2 -15 -4z"/>
<path d="M7068 6094 c-4 -3 5 -22 18 -41 31 -46 31 -62 -1 -26 -28 32 -34 17
-7 -18 19 -23 62 -36 62 -19 0 13 -53 110 -61 110 -3 0 -8 -3 -11 -6z"/>
<path d="M3698 5993 c7 -3 16 -2 19 1 4 3 -2 6 -13 5 -11 0 -14 -3 -6 -6z"/>
<path d="M7021 5991 c-15 -10 -5 -36 28 -65 18 -16 21 -17 21 -3 0 9 -5 19
-11 23 -8 4 -7 9 2 14 10 7 10 11 0 24 -15 18 -21 19 -40 7z"/>
<path d="M3803 5970 c-24 -4 -46 -10 -50 -14 -8 -8 88 3 96 10 9 9 -6 10 -46
4z"/>
<path d="M3665 5940 c-19 -8 -19 -9 3 -9 12 -1 22 4 22 9 0 6 -1 10 -2 9 -2 0
-12 -4 -23 -9z"/>
<path d="M3475 5906 c-38 -12 -74 -24 -80 -27 -5 -4 -34 -14 -63 -24 -29 -9
-51 -19 -49 -21 6 -7 178 44 193 57 7 6 17 9 21 6 4 -3 21 0 38 7 53 22 12 23
-60 2z"/>
<path d="M7167 5913 c-10 -9 -9 -41 2 -47 11 -7 21 28 12 43 -4 6 -10 8 -14 4z"/>
<path d="M7090 5882 c0 -4 9 -15 20 -25 36 -31 57 -15 22 16 -19 18 -42 23
-42 9z"/>
<path d="M5074 5855 c11 -8 25 -15 30 -15 6 0 2 7 -8 15 -11 8 -25 15 -30 15
-6 0 -2 -7 8 -15z"/>
<path d="M3195 5808 c-50 -19 -79 -38 -72 -45 2 -2 27 8 55 22 27 14 55 25 60
25 6 0 14 5 17 10 8 13 -1 12 -60 -12z"/>
<path d="M5040 5815 c0 -5 76 -45 86 -45 4 0 -10 11 -30 25 -35 23 -56 31 -56
20z"/>
<path d="M5170 5801 c0 -10 30 -24 37 -17 3 2 -5 9 -16 16 -12 6 -21 7 -21 1z"/>
<path d="M5270 5742 c0 -12 19 -26 26 -19 2 2 -2 10 -11 17 -9 8 -15 8 -15 2z"/>
<path d="M2600 5425 c-18 -19 -31 -37 -29 -40 3 -2 23 13 44 35 22 22 35 40
29 40 -6 0 -25 -16 -44 -35z"/>
<path d="M457 5386 c-21 -32 -34 -81 -18 -72 6 4 11 13 11 19 0 7 7 25 15 41
19 36 13 45 -8 12z"/>
<path d="M2540 5365 c-7 -9 -8 -15 -2 -15 5 0 12 7 16 15 3 8 4 15 2 15 -2 0
-9 -7 -16 -15z"/>
<path d="M2418 5251 c-106 -142 -155 -213 -176 -251 l-13 -25 22 21 c12 12 31
38 43 57 27 46 143 187 173 210 26 21 54 65 33 52 -7 -4 -15 -3 -19 3 -3 5
-32 -24 -63 -67z"/>
<path d="M5770 5269 c0 -3 11 -20 25 -39 14 -19 25 -29 25 -23 0 12 -49 73
-50 62z"/>
<path d="M6280 5255 c0 -15 18 -40 24 -34 3 3 -1 14 -9 25 -8 10 -14 15 -15 9z"/>
<path d="M6140 5176 c0 -2 7 -9 15 -16 12 -10 15 -10 15 4 0 9 -7 16 -15 16
-8 0 -15 -2 -15 -4z"/>
<path d="M6371 5033 c5 -16 12 -34 15 -42 2 -8 7 -11 10 -9 6 6 -22 78 -30 78
-3 0 -1 -12 5 -27z"/>
<path d="M7374 4976 c-4 -11 -1 -21 7 -27 17 -11 26 18 10 34 -7 7 -12 5 -17
-7z"/>
<path d="M7396 4912 c-3 -5 1 -18 9 -28 9 -12 14 -44 15 -87 0 -43 4 -66 10
-62 6 3 15 -6 20 -21 18 -47 22 -18 6 44 -9 33 -16 75 -16 94 0 35 -32 79 -44
60z"/>
<path d="M2131 4804 c-28 -59 -50 -109 -47 -111 2 -2 23 33 46 79 23 46 46 88
50 93 13 18 20 45 11 45 -4 0 -31 -48 -60 -106z"/>
<path d="M7509 4878 c-3 -55 2 -102 12 -112 9 -10 13 4 9 38 -1 10 4 23 12 28
10 7 10 11 -5 22 -10 7 -15 20 -11 29 3 8 1 18 -5 22 -7 4 -12 -6 -12 -27z"/>
<path d="M6438 4868 c7 -7 12 -22 12 -34 0 -12 7 -27 15 -34 12 -10 12 -5 -1
34 -9 25 -21 46 -27 46 -7 0 -7 -4 1 -12z"/>
<path d="M7620 4815 c1 -11 7 -33 16 -50 l14 -30 -5 39 c-5 42 -25 75 -25 41z"/>
<path d="M6478 4733 c2 -16 9 -33 14 -40 5 -7 7 -16 4 -21 -3 -5 1 -18 9 -28
13 -17 14 -16 8 15 -4 25 -3 32 5 27 15 -9 15 -7 1 33 -9 24 -14 29 -20 19 -7
-10 -9 -9 -9 5 0 9 -4 17 -9 17 -4 0 -6 -12 -3 -27z"/>
<path d="M7536 4690 c8 -28 12 -59 9 -70 -7 -23 11 -36 19 -13 8 19 -23 133
-35 133 -5 0 -1 -23 7 -50z"/>
<path d="M6317 4703 c-10 -10 -8 -121 2 -127 8 -6 28 -102 29 -145 1 -13 9
-32 18 -42 13 -14 18 -40 20 -99 4 -109 17 -146 24 -65 10 123 -47 452 -77
440 -7 -2 -13 2 -13 10 0 8 5 15 10 15 6 0 10 5 10 10 0 11 -13 13 -23 3z"/>
<path d="M2066 4662 c-4 -12 -12 -20 -17 -17 -5 4 -9 -1 -9 -10 0 -9 -16 -69
-35 -133 -20 -64 -38 -135 -40 -157 -2 -22 -9 -56 -15 -75 -14 -45 -23 -157
-11 -144 5 5 12 36 15 69 2 33 5 61 7 63 3 3 5 14 46 182 14 58 37 131 50 163
13 33 22 64 20 70 -2 7 -7 2 -11 -11z"/>
<path d="M7435 4660 c-3 -5 1 -20 9 -32 l16 -22 0 26 c0 29 -15 45 -25 28z"/>
<path d="M6523 4584 c-3 -8 -1 -20 6 -27 8 -8 11 -4 11 16 0 30 -7 35 -17 11z"/>
<path d="M6960 4570 c0 -11 4 -20 9 -20 5 0 7 9 4 20 -3 11 -7 20 -9 20 -2 0
-4 -9 -4 -20z"/>
<path d="M6931 4528 c-1 -16 4 -28 9 -28 12 0 12 8 0 35 -8 18 -9 17 -9 -7z"/>
<path d="M6523 4516 c3 -8 9 -32 12 -53 4 -21 9 -45 12 -53 3 -8 5 -31 4 -50
-1 -25 1 -31 8 -21 10 16 6 78 -9 115 -5 13 -6 26 -3 29 8 9 -7 47 -19 47 -5
0 -8 -6 -5 -14z"/>
<path d="M6960 4473 c0 -5 9 -42 20 -83 l19 -75 -6 75 c-6 80 -9 90 -24 90 -5
0 -9 -3 -9 -7z"/>
<path d="M305 4450 c-4 -12 -5 -24 -2 -27 3 -2 8 5 12 17 4 12 5 24 2 27 -3 2
-8 -5 -12 -17z"/>
<path d="M296 4401 c-4 -7 -5 -15 -2 -18 9 -9 19 4 14 18 -4 11 -6 11 -12 0z"/>
<path d="M6554 4273 c4 -27 8 -85 10 -131 2 -46 6 -85 9 -88 11 -12 16 99 7
176 -5 47 -10 86 -10 88 0 1 -5 2 -11 2 -7 0 -9 -16 -5 -47z"/>
<path d="M296 4288 c-5 -16 -12 -28 -17 -28 -23 0 -6 -180 21 -220 16 -23 32
7 26 49 -3 21 0 38 9 48 17 16 20 33 6 33 -5 0 -12 -8 -14 -17 -3 -10 -5 -2
-6 17 0 19 -4 60 -9 90 -7 49 -9 52 -16 28z"/>
<path d="M6600 4213 c0 -17 5 -35 10 -38 13 -8 13 35 0 55 -7 11 -10 7 -10
-17z"/>
<path d="M7473 4155 c0 -27 2 -38 4 -22 2 15 2 37 0 50 -2 12 -4 0 -4 -28z"/>
<path d="M6490 4171 c0 -5 5 -13 10 -16 6 -3 10 -2 10 4 0 5 -4 13 -10 16 -5
3 -10 2 -10 -4z"/>
<path d="M6365 4108 c-3 -13 -4 -32 -4 -43 1 -11 1 -24 -1 -30 -5 -22 1 -86 8
-81 4 2 9 43 10 90 2 84 -2 108 -13 64z"/>
<path d="M330 4020 c0 -16 2 -30 4 -30 2 0 6 14 8 30 3 17 1 30 -4 30 -4 0 -8
-13 -8 -30z"/>
<path d="M6560 4016 c0 -14 5 -26 10 -26 6 0 10 9 10 19 0 11 -4 23 -10 26 -6
4 -10 -5 -10 -19z"/>
<path d="M6612 3990 c0 -14 2 -19 5 -12 2 6 2 18 0 25 -3 6 -5 1 -5 -13z"/>
<path d="M1931 3974 c0 -11 3 -14 6 -6 3 7 2 16 -1 19 -3 4 -6 -2 -5 -13z"/>
<path d="M6963 3935 c0 -22 2 -30 4 -17 2 12 2 30 0 40 -3 9 -5 -1 -4 -23z"/>
<path d="M1920 3905 c0 -8 2 -15 4 -15 2 0 6 7 10 15 3 8 1 15 -4 15 -6 0 -10
-7 -10 -15z"/>
<path d="M6420 3841 c0 -12 5 -21 10 -21 6 0 10 6 10 14 0 8 -4 18 -10 21 -5
3 -10 -3 -10 -14z"/>
<path d="M6351 3810 c1 -42 1 -43 9 -16 6 17 5 36 0 45 -7 11 -9 3 -9 -29z"/>
<path d="M6340 3740 c0 -11 2 -20 4 -20 2 0 6 9 9 20 3 11 1 20 -4 20 -5 0 -9
-9 -9 -20z"/>
<path d="M7597 3720 c-5 -25 -31 -139 -59 -253 -27 -115 -47 -211 -45 -214 5
-5 47 101 47 119 0 6 2 9 5 6 6 -6 -42 -300 -55 -334 -6 -14 -10 -35 -9 -47 0
-18 3 -16 15 12 17 39 46 192 69 366 8 66 22 161 31 210 8 50 14 110 12 135
l-3 45 -8 -45z"/>
<path d="M6482 3700 c0 -14 2 -19 5 -12 2 6 2 18 0 25 -3 6 -5 1 -5 -13z"/>
<path d="M6536 3694 c-4 -9 -4 -19 -1 -22 2 -3 7 3 11 12 4 9 4 19 1 22 -2 3
-7 -3 -11 -12z"/>
<path d="M6511 3533 c0 -6 -4 -20 -7 -30 -5 -14 -4 -15 5 -7 7 7 11 20 8 30
-3 11 -5 14 -6 7z"/>
<path d="M7416 3499 c-3 -18 -2 -37 3 -41 5 -5 11 5 15 23 3 18 2 37 -2 42 -5
5 -12 -6 -16 -24z"/>
<path d="M6481 3413 c-16 -58 -12 -75 5 -19 9 26 13 50 10 53 -2 3 -9 -12 -15
-34z"/>
<path d="M6935 3400 c-4 -6 -9 -26 -12 -43 -3 -18 -25 -90 -49 -161 -24 -71
-42 -131 -40 -133 6 -7 74 162 81 202 4 22 14 62 22 88 15 45 13 72 -2 47z"/>
<path d="M6591 3293 c-15 -52 -25 -113 -18 -113 7 0 39 141 33 147 -2 3 -9
-12 -15 -34z"/>
<path d="M6476 3294 c-4 -9 -4 -19 -1 -22 2 -3 7 3 11 12 4 9 4 19 1 22 -2 3
-7 -3 -11 -12z"/>
<path d="M7403 3285 c-14 -16 -17 -35 -5 -35 16 1 44 29 37 39 -8 14 -17 13
-32 -4z"/>
<path d="M6360 3250 c-6 -11 -8 -20 -6 -20 3 0 10 9 16 20 6 11 8 20 6 20 -3
0 -10 -9 -16 -20z"/>
<path d="M6437 3183 c-4 -3 -7 -13 -7 -22 1 -13 3 -13 11 2 11 19 8 33 -4 20z"/>
<path d="M6743 3150 c-6 -17 -8 -30 -3 -30 8 0 24 50 18 56 -2 2 -9 -10 -15
-26z"/>
<path d="M6557 3157 c-4 -10 -7 -26 -7 -35 1 -15 2 -15 11 1 6 10 9 25 7 35
-3 16 -4 15 -11 -1z"/>
<path d="M6115 3030 c-3 -5 -1 -10 4 -10 6 0 11 5 11 10 0 6 -2 10 -4 10 -3 0
-8 -4 -11 -10z"/>
<path d="M6095 3002 c-6 -4 -19 -25 -30 -47 -11 -22 -39 -68 -62 -104 -24 -36
-43 -68 -43 -73 0 -18 17 -7 31 20 7 15 26 43 40 62 31 40 84 139 77 145 -2 2
-8 1 -13 -3z"/>
<path d="M6490 2925 c0 -8 2 -15 4 -15 2 0 6 7 10 15 3 8 1 15 -4 15 -6 0 -10
-7 -10 -15z"/>
<path d="M2306 2904 c-5 -18 -2 -32 8 -42 13 -14 15 -11 13 21 -3 46 -13 55
-21 21z"/>
<path d="M7245 2844 c-10 -11 -15 -28 -13 -44 3 -19 -2 -31 -14 -39 -10 -6
-18 -19 -18 -29 1 -12 9 -8 31 18 16 19 29 42 28 50 -1 8 1 23 6 33 11 25 0
31 -20 11z"/>
<path d="M6216 2676 c-23 -36 -20 -44 5 -12 12 15 19 29 16 32 -2 2 -12 -7
-21 -20z"/>
<path d="M6417 2683 c-4 -3 -7 -11 -7 -17 0 -6 5 -5 12 2 6 6 9 14 7 17 -3 3
-9 2 -12 -2z"/>
<path d="M2500 2611 c0 -21 13 -41 26 -41 11 0 11 5 2 25 -11 24 -28 34 -28
16z"/>
<path d="M6330 2591 c-12 -17 -18 -31 -13 -31 11 1 46 50 40 56 -3 3 -15 -9
-27 -25z"/>
<path d="M6455 2589 c-11 -17 1 -21 15 -4 8 9 8 15 2 15 -6 0 -14 -5 -17 -11z"/>
<path d="M6210 2565 c-8 -9 -8 -15 -2 -15 12 0 26 19 19 26 -2 2 -10 -2 -17
-11z"/>
<path d="M7246 2489 c-10 -17 -15 -33 -11 -37 8 -9 45 35 45 54 0 23 -15 16
-34 -17z"/>
<path d="M6265 2357 c-29 -61 -30 -64 -5 -37 33 38 54 80 38 80 -7 0 -22 -19
-33 -43z"/>
<path d="M2760 2340 c0 -10 5 -22 10 -25 6 -3 10 -4 10 -1 0 2 3 11 6 19 3 8
-2 17 -10 20 -11 5 -16 0 -16 -13z"/>
<path d="M2849 2310 c-10 -44 0 -80 22 -80 14 0 10 44 -6 66 -8 10 -15 17 -16
14z"/>
<path d="M7130 2286 c0 -17 14 -29 23 -20 8 8 -3 34 -14 34 -5 0 -9 -6 -9 -14z"/>
<path d="M7000 2261 c-18 -26 -19 -31 -5 -31 8 0 20 12 26 26 14 38 5 40 -21
5z"/>
<path d="M7097 2238 c-10 -21 -12 -34 -6 -37 16 -5 32 15 35 44 4 35 -10 31
-29 -7z"/>
<path d="M2936 2205 c-7 -35 -2 -55 13 -55 11 0 20 47 14 71 -8 30 -20 22 -27
-16z"/>
<path d="M6073 2158 c-23 -30 -24 -41 -2 -21 12 12 20 25 17 28 -3 3 -10 0
-15 -7z"/>
<path d="M6395 2147 c-10 -15 -16 -30 -13 -32 8 -9 40 33 36 47 -3 8 -11 2
-23 -15z"/>
<path d="M7046 2147 c-14 -13 -26 -29 -26 -34 0 -6 -16 -30 -35 -54 -44 -56
-47 -84 -4 -43 17 16 38 41 47 57 9 15 22 27 28 27 10 0 27 59 19 68 -2 2 -15
-8 -29 -21z"/>
<path d="M6265 2020 c-16 -16 -24 -30 -19 -30 6 0 20 14 32 30 13 17 21 30 19
30 -2 0 -16 -13 -32 -30z"/>
<path d="M6916 1969 c-10 -17 -48 -65 -83 -106 -36 -41 -63 -76 -61 -79 3 -2
30 20 61 50 57 56 112 137 105 156 -2 6 -12 -3 -22 -21z"/>
<path d="M6180 1935 c-13 -14 -19 -25 -13 -25 6 0 18 11 27 25 9 14 15 25 13
25 -2 0 -14 -11 -27 -25z"/>
<path d="M5933 1874 l-48 -46 47 32 c26 18 49 39 52 46 8 22 1 17 -51 -32z"/>
<path d="M5940 1840 c-14 -11 -20 -20 -14 -20 14 0 50 27 44 33 -3 3 -16 -3
-30 -13z"/>
<path d="M5085 1819 c-22 -10 -34 -19 -27 -19 15 0 72 28 72 35 0 6 3 7 -45
-16z"/>
<path d="M5774 1806 c-21 -19 -36 -37 -33 -40 3 -3 23 12 44 34 48 49 42 52
-11 6z"/>
<path d="M5830 1750 c-14 -11 -20 -20 -14 -20 7 0 22 9 35 20 31 25 12 26 -21
0z"/>
<path d="M5699 1734 l-24 -27 28 18 c15 9 27 21 27 26 0 14 -5 11 -31 -17z"/>
<path d="M1040 1729 c7 -11 14 -19 16 -16 7 7 -7 37 -17 37 -6 0 -5 -9 1 -21z"/>
<path d="M6699 1693 c-56 -58 -89 -101 -89 -115 0 -10 138 132 151 155 19 33
-7 17 -62 -40z"/>
<path d="M5734 1716 c-10 -8 -17 -17 -14 -19 3 -3 16 3 30 13 29 22 14 27 -16
6z"/>
<path d="M5588 1702 c-38 -23 -36 -35 2 -14 16 9 30 20 30 25 0 9 1 9 -32 -11z"/>
<path d="M6560 1644 c-19 -18 -32 -35 -30 -38 8 -8 73 50 69 61 -2 6 -20 -5
-39 -23z"/>
<path d="M5368 1605 c-57 -55 -61 -65 -21 -42 25 14 95 98 81 97 -2 0 -28 -25
-60 -55z"/>
<path d="M5700 1645 c-8 -9 -8 -15 -2 -15 12 0 26 19 19 26 -2 2 -10 -2 -17
-11z"/>
<path d="M6816 1619 c-15 -17 -25 -33 -22 -37 3 -3 7 -3 9 -1 1 2 15 19 31 37
17 17 25 32 20 32 -6 0 -23 -14 -38 -31z"/>
<path d="M6657 1600 c-10 -16 -22 -30 -26 -30 -5 0 -25 -11 -45 -25 -35 -23
-49 -22 -24 3 7 7 8 12 2 12 -13 0 -91 -82 -134 -140 -18 -25 -56 -69 -84 -97
-27 -29 -47 -55 -43 -59 3 -4 -17 -21 -46 -38 -106 -65 -127 -82 -143 -116 -9
-19 -28 -47 -42 -62 -57 -61 38 -16 156 75 38 29 49 43 40 48 -10 7 -10 9 0 9
6 0 12 7 12 16 0 19 34 49 77 69 25 10 32 20 30 37 -1 12 3 23 8 23 30 2 55
19 55 35 0 10 5 22 12 26 8 5 9 2 5 -9 -12 -31 11 -18 48 28 20 24 34 49 30
55 -3 5 -2 10 4 10 5 0 12 8 15 18 6 17 64 57 79 54 11 -3 66 61 67 77 0 11
-3 11 -17 0 -11 -10 -14 -10 -9 -1 4 6 3 12 -1 12 -5 0 -17 -13 -26 -30z"/>
<path d="M5701 1587 c-6 -8 -8 -17 -4 -20 7 -8 33 11 33 24 0 13 -16 11 -29
-4z"/>
<path d="M6759 1563 c-13 -16 -12 -17 4 -4 16 13 21 21 13 21 -2 0 -10 -8 -17
-17z"/>
<path d="M6463 1535 c-15 -13 -23 -25 -17 -25 6 0 21 11 34 25 30 32 19 32
-17 0z"/>
<path d="M5770 1535 c-16 -19 -1 -19 24 0 16 12 17 15 4 15 -8 0 -21 -7 -28
-15z"/>
<path d="M6380 1520 c-16 -18 -30 -38 -30 -46 0 -8 -6 -14 -14 -14 -14 0 -41
-59 -31 -68 6 -7 55 46 55 59 0 13 39 71 54 81 6 4 7 10 4 14 -4 4 -21 -8 -38
-26z"/>
<path d="M4885 1510 c-3 -5 3 -10 14 -10 11 0 23 5 26 10 3 6 -3 10 -14 10
-11 0 -23 -4 -26 -10z"/>
<path d="M5235 1510 c-3 -5 -2 -10 4 -10 5 0 13 5 16 10 3 6 2 10 -4 10 -5 0
-13 -4 -16 -10z"/>
<path d="M5550 1495 c-15 -8 -19 -14 -10 -14 18 -1 46 16 40 23 -3 2 -16 -2
-30 -9z"/>
<path d="M6201 1426 c-19 -20 -32 -38 -29 -42 9 -9 71 51 67 65 -3 7 -18 -2
-38 -23z"/>
<path d="M4162 1439 c-25 -10 -21 -28 6 -30 11 -1 8 -4 -8 -9 -25 -9 164 -3
208 6 12 2 22 0 22 -5 0 -5 16 -9 35 -9 32 0 51 16 23 20 -45 5 -88 19 -88 29
0 12 -168 10 -198 -2z"/>
<path d="M5614 1435 c-18 -13 -18 -14 4 -8 12 3 25 9 28 14 8 14 -10 11 -32
-6z"/>
<path d="M4030 1420 c0 -5 7 -10 15 -10 8 0 15 5 15 10 0 6 -7 10 -15 10 -8 0
-15 -4 -15 -10z"/>
<path d="M4480 1410 c0 -5 16 -10 35 -10 19 0 35 5 35 10 0 6 -16 10 -35 10
-19 0 -35 -4 -35 -10z"/>
<path d="M4890 1381 c0 -5 9 -7 20 -4 11 3 20 7 20 9 0 2 -9 4 -20 4 -11 0
-20 -4 -20 -9z"/>
<path d="M5058 1368 c-16 -5 -28 -14 -28 -20 0 -14 51 -1 70 18 13 12 13 14 0
13 -8 0 -27 -5 -42 -11z"/>
<path d="M5509 1350 l-24 -21 33 16 c31 15 41 25 23 25 -5 0 -19 -9 -32 -20z"/>
<path d="M6093 1348 c-18 -13 -33 -26 -33 -31 0 -13 57 21 63 38 8 19 8 19
-30 -7z"/>
<path d="M6241 1347 c-6 -8 -8 -16 -5 -19 3 -4 -8 -14 -25 -24 -29 -17 -49
-44 -33 -44 12 0 105 74 110 88 5 16 -33 16 -47 -1z"/>
<path d="M6290 1335 c-10 -12 -10 -15 3 -15 8 0 20 7 27 15 10 12 10 15 -3 15
-8 0 -20 -7 -27 -15z"/>
<path d="M6107 1316 c-9 -7 -17 -19 -17 -27 0 -9 8 -6 22 9 25 24 22 37 -5 18z"/>
<path d="M4083 1303 c9 -2 23 -2 30 0 6 3 -1 5 -18 5 -16 0 -22 -2 -12 -5z"/>
<path d="M4496 1293 c-38 -4 -74 -27 -58 -37 14 -8 105 18 110 32 2 6 0 11 -5
10 -4 -1 -26 -3 -47 -5z"/>
<path d="M4783 1280 c-13 -5 -23 -12 -23 -14 0 -7 61 5 80 15 21 12 -28 11
-57 -1z"/>
<path d="M4367 1264 c-11 -12 3 -24 29 -24 27 0 32 15 8 24 -20 8 -29 8 -37 0z"/>
<path d="M6119 1242 l-23 -20 28 3 c34 4 43 12 29 26 -7 7 -17 4 -34 -9z"/>
<path d="M4590 1240 c0 -13 20 -13 40 0 12 8 9 10 -12 10 -16 0 -28 -4 -28
-10z"/>
<path d="M4413 1233 c-21 -8 -15 -22 7 -16 11 3 20 9 20 14 0 10 -8 10 -27 2z"/>
<path d="M4713 1227 c-48 -18 -53 -30 -8 -22 40 7 86 36 55 34 -8 0 -29 -6
-47 -12z"/>
<path d="M4230 1222 c0 -5 14 -7 30 -4 17 2 30 6 30 8 0 2 -13 4 -30 4 -16 0
-30 -4 -30 -8z"/>
<path d="M5198 1182 c-50 -18 -80 -40 -38 -27 35 10 107 43 95 43 -5 0 -31 -7
-57 -16z"/>
<path d="M5090 1140 c0 -5 4 -10 9 -10 6 0 13 5 16 10 3 6 -1 10 -9 10 -9 0
-16 -4 -16 -10z"/>
<path d="M5043 1129 c-18 -5 -33 -12 -33 -15 0 -9 53 5 65 17 10 10 11 10 -32
-2z"/>
<path d="M5177 1096 c-62 -26 -90 -44 -47 -31 41 13 110 44 110 50 0 7 3 8
-63 -19z"/>
<path d="M6070 1095 c-7 -9 -10 -18 -7 -22 8 -7 37 15 37 28 0 14 -16 11 -30
-6z"/>
<path d="M4938 1093 c6 -2 18 -2 25 0 6 3 1 5 -13 5 -14 0 -19 -2 -12 -5z"/>
<path d="M4650 1040 l-25 -8 28 -1 c15 -1 27 4 27 9 0 6 -1 10 -2 9 -2 -1 -14
-5 -28 -9z"/>
<path d="M5030 1040 c-13 -9 -13 -10 0 -10 8 0 22 5 30 10 13 9 13 10 0 10 -8
0 -22 -5 -30 -10z"/>
<path d="M5495 1008 c-14 -21 -14 -23 0 -26 23 -5 60 29 43 40 -20 12 -26 10
-43 -14z"/>
<path d="M5509 964 c-13 -7 -32 -13 -41 -14 -10 0 -18 -4 -18 -8 0 -5 -15 -16
-32 -25 -21 -10 -27 -16 -15 -16 9 -1 17 -7 17 -13 0 -7 12 0 26 15 14 17 31
27 39 23 8 -3 17 -1 20 5 4 5 21 15 38 22 29 12 30 14 11 19 -12 3 -32 -1 -45
-8z"/>
<path d="M5665 942 c-100 -55 -293 -137 -430 -184 -77 -26 -128 -47 -114 -48
76 -1 515 177 589 239 35 28 15 25 -45 -7z"/>
<path d="M4783 953 c-13 -2 -23 -9 -23 -15 0 -6 10 -8 23 -4 12 3 25 6 30 6 4
0 7 5 7 10 0 6 -3 9 -7 9 -5 -1 -18 -4 -30 -6z"/>
<path d="M5398 944 c-30 -16 -35 -24 -15 -24 16 0 54 27 47 33 -3 3 -17 -1
-32 -9z"/>
<path d="M4600 930 c-11 -7 -3 -10 30 -10 25 0 52 5 60 10 11 7 3 10 -30 10
-25 0 -52 -5 -60 -10z"/>
<path d="M4390 920 c-19 -3 -48 -14 -65 -23 l-30 -16 26 -1 c15 0 32 7 40 16
10 12 29 15 88 12 42 -2 76 1 76 5 0 11 -89 16 -135 7z"/>
<path d="M4223 903 c9 -2 25 -2 35 0 9 3 1 5 -18 5 -19 0 -27 -2 -17 -5z"/>
<path d="M5127 893 c-19 -3 -27 -9 -23 -18 3 -9 -5 -16 -25 -20 -35 -8 -39
-35 -5 -35 15 0 41 16 66 40 23 22 36 39 28 39 -7 -1 -26 -4 -41 -6z"/>
<path d="M1662 864 c1 -9 9 -19 16 -22 9 -3 13 2 10 14 -1 9 -9 19 -16 22 -9
3 -13 -2 -10 -14z"/>
<path d="M5784 856 c-10 -8 -15 -18 -11 -22 4 -4 15 0 24 9 22 21 12 31 -13
13z"/>
<path d="M1660 821 c0 -5 7 -14 15 -21 16 -14 18 -10 9 14 -6 17 -24 22 -24 7z"/>
<path d="M4175 821 c-3 -6 10 -7 32 -4 50 8 55 13 10 13 -20 0 -38 -4 -42 -9z"/>
<path d="M5680 805 c-10 -12 -10 -15 3 -15 8 0 20 7 27 15 10 12 10 15 -3 15
-8 0 -20 -7 -27 -15z"/>
<path d="M3886 764 c-21 -24 -47 -44 -57 -44 -10 0 -23 -9 -29 -19 -14 -27
-13 -31 10 -31 11 0 20 5 20 10 0 6 9 10 19 10 30 0 51 11 51 26 0 8 6 14 14
14 16 0 46 42 46 65 0 28 -35 14 -74 -31z"/>
<path d="M4978 802 c-10 -2 -18 -8 -18 -13 0 -5 -11 -9 -25 -9 -14 0 -25 -4
-25 -10 0 -5 -7 -10 -15 -10 -8 0 -15 -3 -15 -8 0 -4 20 -6 45 -4 35 3 45 8
43 21 -3 13 5 16 45 14 33 -1 47 3 47 12 0 12 -40 16 -82 7z"/>
<path d="M5543 790 c-52 -23 -58 -43 -10 -28 40 12 90 48 67 48 -8 0 -34 -9
-57 -20z"/>
<path d="M5617 770 c-16 -13 -27 -16 -29 -9 -4 12 -84 -25 -128 -60 -40 -32
-18 -33 46 -2 32 15 76 36 96 45 36 16 54 33 46 42 -3 2 -17 -5 -31 -16z"/>
<path d="M4782 770 c-34 -8 -67 -30 -45 -30 14 0 83 29 83 35 0 3 -1 5 -2 4
-2 -1 -18 -5 -36 -9z"/>
<path d="M4560 743 c-39 -7 -48 -23 -13 -23 17 0 36 7 43 15 7 8 9 14 4 14 -5
-1 -20 -4 -34 -6z"/>
<path d="M5628 727 c-16 -6 -28 -15 -28 -19 0 -5 14 -2 30 7 17 9 30 18 30 20
0 3 -1 5 -2 4 -2 -1 -15 -6 -30 -12z"/>
<path d="M4560 700 c0 -13 20 -13 40 0 12 8 9 10 -12 10 -16 0 -28 -4 -28 -10z"/>
<path d="M4910 670 c-8 -5 -11 -12 -8 -16 10 -9 38 3 38 16 0 12 -10 13 -30 0z"/>
<path d="M4075 550 c28 -12 83 -12 90 0 4 6 -16 10 -52 9 -42 0 -52 -3 -38 -9z"/>
<path d="M4201 556 c10 -9 109 -14 109 -6 0 6 -25 10 -57 10 -31 0 -54 -2 -52
-4z"/>
<path d="M5041 549 c-13 -5 -21 -12 -18 -15 9 -9 75 5 82 16 8 13 -32 12 -64
-1z"/>
<path d="M4940 526 c-61 -14 -115 -34 -109 -41 9 -8 145 26 159 40 8 8 12 15
10 14 -3 0 -30 -6 -60 -13z"/>
<path d="M4569 487 c14 -17 4 -27 -25 -27 -13 0 -26 -4 -29 -10 -8 -13 46 -13
121 1 78 14 96 31 29 28 -27 -1 -60 3 -72 9 -29 16 -38 15 -24 -1z"/>
<path d="M4750 480 c0 -13 30 -13 50 0 11 7 7 10 -17 10 -18 0 -33 -4 -33 -10z"/>
<path d="M4270 465 c0 -19 30 -19 56 0 18 13 17 14 -18 15 -27 0 -38 -4 -38
-15z"/>
</g>
</svg>
